<svg version="1.2" xmlns="http://www.w3.org/2000/svg" viewBox="0 0 1010 840" width="1010" height="840">
	<title>bg-svg</title>
	<defs>
		<linearGradient id="g1" x1="395.9" y1="610.8" x2="602.9" y2="610.8" gradientUnits="userSpaceOnUse">
			<stop offset="0" stop-color="#808080" stop-opacity=".25"/>
			<stop offset=".54" stop-color="#808080" stop-opacity=".12"/>
			<stop offset="1" stop-color="#808080" stop-opacity=".1"/>
		</linearGradient>
	</defs>
	<style>
		.s0 { opacity: .1;fill: #0009bf } 
		.s1 { opacity: .1;fill: #0004bf } 
		.s2 { fill: #3a3768 } 
		.s3 { fill: #001fbf } 
		.s4 { fill: #e6e8ec } 
		.s5 { fill: #0004bf } 
		.s6 { fill: #0012bf } 
		.s7 { opacity: .1;fill: #000000 } 
		.s8 { fill: url(#g1) } 
		.s9 { fill: #8e6f7f } 
		.s10 { fill: #5f5570 } 
		.s11 { fill: #eaeaf2 } 
		.s12 { fill: #bc8487 } 
		.s13 { fill: #ffc4d0 } 
		.s14 { fill: #000000 } 
		.s15 { opacity: .1;fill: #9200bf } 
		.s16 { fill: #1b00bf } 
		.s17 { fill: #0d00bf } 
		.s18 { fill: #0009bf } 
		.s19 { fill: #ffd037 } 
		.s20 { fill: #1600bf } 
		.s21 { fill: #a8a8a8 } 
		.s22 { opacity: .2;fill: #000000 } 
	</style>
	<path id="Layer" class="s0" d="m586.5 111.4c-64.7-2.3-126.3-23.1-185.2-46-58.8-22.9-117.1-48.2-180.3-60.3-40.6-7.8-87.1-8.9-119.8 12.9-31.5 21-41.7 57.1-47.2 90.7-4.1 25.3-6.5 51.9 4.8 75.5 7.8 16.4 21.7 30.2 31.3 46 33.5 54.7 9.8 122.2-26.4 175.6-17 25.1-36.8 49-49.9 75.6-13.1 26.7-19.2 57.3-7.7 84.5 11.4 27 38.5 47.3 67.9 61.5 59.7 29 130 37.2 198.6 41.9 151.8 10.4 304.4 5.9 456.7 1.4 56.3-1.6 112.9-3.3 168.3-12.1 30.8-4.8 62.6-12.5 84.9-31 28.4-23.5 35.4-63.4 16.4-92.9-31.9-49.5-120-61.8-142.3-114.9-12.3-29.2 0.3-61.8 18.1-88.9 38.3-58.2 102.4-109.2 105.7-175.7 2.4-45.6-28.4-91.4-76.1-113-49.9-22.6-119.2-19.8-156 17.7-37.9 38.6-104.6 53.5-161.8 51.5z"/>
	<path id="Layer" class="s1" d="m483.5 822.1c-168.1 0-304-18.4-304-41.1 0-22.7 135.9-41.1 304-41.1 168.1 0 304 18.4 304 41.1 0 22.7-135.9 41.1-304 41.1z"/>
	<path id="Layer" class="s2" d="m348.3 335.4c0-1.3 1-2.3 2.3-2.3h0.7c1.3 0 2.3 1 2.3 2.3v37.6c0 1.3-1 2.3-2.3 2.3h-0.7c-1.3 0-2.3-1-2.3-2.3z"/>
	<path id="Layer" class="s2" d="m351.2 192.2c0-21.6 17.4-39 39-39h218.4c21.5 0 39 17.4 39 39v524.4c0 21.5-17.5 39-39 39h-218.4c-21.6 0-39-17.5-39-39z"/>
	<path id="Layer" class="s3" d="m605.8 168.8h-34v4.1c0 2.6-0.5 5.1-1.5 7.4-1 2.4-2.4 4.5-4.2 6.3-1.8 1.8-3.9 3.2-6.3 4.2-2.4 1-4.9 1.5-7.4 1.5h-108.1c-2.6 0-5.1-0.5-7.5-1.5-2.3-1-4.5-2.4-6.3-4.2-1.8-1.8-3.2-3.9-4.2-6.3-0.9-2.3-1.4-4.8-1.4-7.4v-4.1h-31.9c-3.1 0-6.1 0.6-9 1.8-2.8 1.2-5.4 2.9-7.6 5.1-2.2 2.2-3.9 4.8-5.1 7.7-1.2 2.8-1.8 5.9-1.8 9v523.9c0 3.1 0.6 6.2 1.8 9 1.2 2.9 2.9 5.5 5.1 7.7 2.2 2.2 4.8 3.9 7.6 5.1 2.9 1.2 5.9 1.8 9 1.8h212.8c3.1 0 6.1-0.6 9-1.8 2.8-1.2 5.4-2.9 7.6-5.1 2.2-2.2 3.9-4.8 5.1-7.7 1.2-2.8 1.8-5.9 1.8-9v-523.9c0-3.1-0.6-6.2-1.8-9-1.2-2.9-2.9-5.5-5.1-7.7-2.2-2.2-4.8-3.9-7.6-5.1-2.9-1.2-5.9-1.8-9-1.8z"/>
	<path id="Layer" class="s4" d="m470.8 175c0-2.1 1.7-3.8 3.9-3.8h33.6c2.1 0 3.9 1.7 3.9 3.8v0.7c0 2.1-1.8 3.9-3.9 3.9h-33.6c-2.2 0-3.9-1.8-3.9-3.9z"/>
	<path id="Layer" class="s4" d="m523.2 180.1c-2.6 0-4.8-2.1-4.8-4.7 0-2.7 2.2-4.8 4.8-4.8 2.6 0 4.8 2.1 4.8 4.8 0 2.6-2.2 4.7-4.8 4.7z"/>
	<path id="Layer" class="s5" d="m750.2 126.8c0 0-84.2-5.1-74.3 53.9 0 0-2 10.4 7.5 15.1 0 0 0.1-4.3 8.6-2.8q1.2 0.1 2.3 0.3 1.2 0.1 2.3 0.1 1.1 0.1 2.3 0.1 1.1 0 2.3-0.1 1.5-0.1 3-0.5 1.5-0.3 3-0.9 1.4-0.6 2.7-1.4 1.3-0.8 2.5-1.8c0 0 23.6-9.8 32.8-48.4 0 0 6.8-8.5 6.6-10.6l-14.2 6c0 0 4.8 10.3 1 18.8 0 0-0.5-18.4-3.2-18-0.6 0.1-7.4 3.5-7.4 3.5 0 0 8.3 17.9 2 30.9 0 0 2.4-22-4.6-29.6l-10 5.9c0 0 9.7 18.4 3.1 33.5 0 0 1.7-23.1-5.2-32.1l-9.1 7.1c0 0 9.2 18.1 3.6 30.6 0 0-0.7-26.8-5.5-28.9 0 0-8 7-9.2 9.9 0 0 6.3 13.2 2.4 20.1 0 0-2.4-17.9-4.4-18 0 0-7.9 11.9-8.7 20 0 0 0.4-12 6.8-21.1 0 0-7.6 1.3-12.1 6.3 0 0 1.3-8.4 14.1-9.1 0 0 6.5-9 8.3-9.6 0 0-12.8-1-20.5 2.4 0 0 6.8-7.9 22.8-4.3l8.9-7.3c0 0-16.7-2.3-23.9 0.2 0 0 8.2-7 26.4-1.9l9.7-5.8c0 0-14.3-3.1-22.8-2 0 0 9-4.9 25.7 0.4l7-3.1c0 0-10.5-2.1-13.6-2.4-3.1-0.4-3.2-1.2-3.2-1.2q2.5-0.4 5-0.5 2.5 0 5 0.2 2.5 0.3 4.9 0.9 2.4 0.6 4.8 1.6c1.5 0.6 14.7-5.5 14.5-6.4z"/>
	<path id="Layer" class="s6" d="m663.8 100.5c0 0-38-2.3-33.5 24.4 0 0-0.9 4.7 3.4 6.8 0 0 0-2 3.9-1.3q0.5 0.1 1 0.2 0.5 0 1 0 0.5 0.1 1.1 0.1 0.5 0 1-0.1 0.7 0 1.4-0.2 0.6-0.1 1.3-0.4 0.6-0.3 1.2-0.6 0.6-0.4 1.1-0.9c0 0 10.7-4.4 14.9-21.9 0 0 3.1-3.8 2.9-4.8l-6.4 2.8c0 0 2.2 4.6 0.5 8.5 0 0-0.2-8.3-1.4-8.2-0.3 0-3.4 1.7-3.4 1.7 0 0 3.8 8 0.9 13.9 0 0 1.1-10-2.1-13.4l-4.5 2.7c0 0 4.4 8.4 1.4 15.1 0 0 0.8-10.4-2.3-14.4l-4.1 3.2c0 0 4.1 8.2 1.6 13.8 0 0-0.3-12.1-2.5-13.1 0 0-3.6 3.2-4.1 4.5 0 0 2.8 6 1 9.1 0 0-1-8.1-2-8.1 0 0-3.5 5.3-3.9 9q0.1-1.3 0.3-2.5 0.2-1.3 0.6-2.5 0.4-1.2 1-2.3 0.5-1.2 1.2-2.2-0.8 0.1-1.5 0.4-0.8 0.2-1.5 0.6-0.7 0.3-1.3 0.8-0.6 0.4-1.2 1c-0.4 0.3 0.6-3.8 6.4-4.1 0 0 3-4.1 3.7-4.4 0 0-5.8-0.4-9.2 1.1 0 0 3-3.6 10.2-1.9l4-3.3c0 0-7.5-1-10.7 0.1 0 0 3.7-3.2 11.8-0.9l4.4-2.6c0 0-6.4-1.4-10.3-0.9 0 0 4.1-2.2 11.6 0.2l3.2-1.4c0 0-4.8-1-6.2-1.1-1.3-0.2-1.4-0.5-1.4-0.5q1.1-0.2 2.2-0.3 1.2 0 2.3 0.1 1.1 0.2 2.2 0.4 1.1 0.3 2.2 0.8c0.7 0.2 6.7-2.6 6.6-3z"/>
	<path id="Layer" class="s7" d="m395.9 226.2h207v439.2h-207z"/>
	<path id="Layer" fill-rule="evenodd" class="s8" d="m600.7 807.3c-4.1 5.8-15.1 2.9-22.8-0.1q-1.4-0.6-2.6-1.3-1.3-0.8-2.4-1.7-1.2-0.9-2.2-2-1-1.1-1.8-2.3-0.2-0.2-0.5-0.5-0.3-0.2-0.6-0.4-0.3-0.1-0.6-0.2-0.4-0.2-0.7-0.2-0.6-0.1-1.2-0.3-0.6-0.1-1.2-0.4-0.6-0.2-1.1-0.6-0.6-0.3-1.1-0.7-0.5-0.4-1-1-0.5-0.5-0.8-1.2-0.3-0.6-0.4-1.3-0.2-0.8-0.1-1.5l0.6-14.3c0 0 0.8-9.9 3.2-9.3l0.7 0.1 0.1-1 0.4-1.9 0.1-1h-1.3q-0.1-1.8-0.3-3.6-0.2-1.8-0.5-3.5-0.3-1.8-0.7-3.6-0.3-1.8-0.8-3.5-0.2-0.7-0.5-1.5-0.2-0.7-0.5-1.5-0.3-0.7-0.6-1.4-0.3-0.7-0.6-1.4c-4.1-8.9-6.8-80.4-6.8-80.4 0 0-48-0.2-49.7-5-1.1 0.1-2.2 0.1-3.2 0.1-1.7 4.8-52.5 3.9-52.5 3.9 0 0-2.7 71.4-6.8 80.3-4.2 8.8-4.5 20.1-4.5 20.1h-1.4l0.2 1 0.3 1.9 0.2 1 0.6-0.2c2.5-0.6 3.3 9.3 3.3 9.3l0.6 14.3q0 0 0 0 0 0 0 0 0 0.1 0 0.1 0 0 0 0 0 0.7-0.1 1.4-0.2 0.8-0.5 1.4-0.3 0.7-0.8 1.2-0.5 0.6-1.1 1-0.4 0.4-1 0.7-0.5 0.3-1.1 0.6-0.5 0.2-1.1 0.4-0.6 0.2-1.2 0.3-0.4 0-0.7 0.1-0.4 0.1-0.7 0.3-0.3 0.1-0.5 0.4-0.3 0.2-0.5 0.5-0.9 1.2-1.9 2.3-1 1-2.1 1.9-1.2 1-2.4 1.7-1.3 0.8-2.6 1.4c-7.1 2.7-17.1 5.5-21.8 1.2q-0.2-0.1-0.3-0.3-0.1-0.1-0.3-0.3-0.1-0.1-0.2-0.2-0.1-0.2-0.2-0.4c-6.6-9.2 4.2-19.2 4.2-19.2 0 0 4.8-11.4 7-16.6 1.2-3 3.3-3.5 4.9-3.5l-0.1-1-0.4-4.7-0.1-1c-3.7-0.8-7-1.4-7-1.4l2.5-121.1c0 0 1-1.3 3.4-9 1.5-4.9 10.6-11.3 16.8-15.3q1-0.6 1.9-1.1c-8.1-7.7-6.2-15.3-6.2-15.3-1.8-2.8 2.8-20.4 2.8-20.4-1.5-12.2 4.4-30.9 4.4-30.9 0.5-5.6 4.1-14.3 4.1-14.3 0 0 4.9-15.5 5.9-17.8l0.1-0.4q0.7-2 1.8-3.8 1-1.8 2.4-3.4 1.3-1.6 2.8-2.9 1.6-1.4 3.4-2.5 1.9-1.1 4.3-2.9c3.7-2.6 10.1-5.5 15.9-7.9l1.2-0.5q-0.2-0.5-0.2-0.5l11.2-3.5c0.1-0.4 0-0.7 0.1-1.1 0.1-0.4 0.1-0.7 0.1-1q-1.9-1.9-3.5-4-1.6-2.2-2.7-4.6-1.2-2.4-1.9-5-0.7-2.6-1-5.2c-0.1-0.4-0.1-0.7-0.1-1q-0.3 0.2-0.6 0.4-0.3 0.3-0.6 0.5-0.3 0.2-0.6 0.4-0.4 0.2-0.7 0.4-0.1 0.1-0.3 0.2-0.1 0-0.3 0.1-0.1 0-0.3 0-0.1 0.1-0.3 0.1-0.3-0.1-0.5-0.2-0.2-0.2-0.4-0.4-0.2-0.2-0.3-0.5-0.1-0.3-0.1-0.6 0-0.2 0-0.5 0-0.3 0-0.6 0.1-0.3 0.1-0.6 0-0.3 0.1-0.5 0-0.3 0-0.5 0-0.2-0.1-0.4 0-0.2 0-0.5-0.1-0.2-0.1-0.4c-0.1-0.2-0.2-0.5-0.2-0.5 0-0.1-0.1-0.1-0.1-0.3-0.1-0.2-0.2-0.5-0.3-0.6q-0.1-0.2-0.2-0.4l-0.1-0.2q-0.2-0.4-0.5-0.9-0.2-0.4-0.4-0.9-0.3-0.4-0.5-0.9-0.2-0.4-0.4-0.9-0.1-0.1-0.1-0.2 0-0.1-0.1-0.2 0-0.1 0-0.2-0.1-0.1-0.1-0.2 0-0.3-0.1-0.5 0-0.2-0.1-0.4 0-0.2 0-0.5 0-0.2 0-0.4c-0.1-3.7 2.5-7.3 3.9-11q0.3-0.9 0.6-1.8 0.2-1 0.4-1.9 0.1-1 0.1-1.9 0.1-1 0-2-0.1-0.3 0-0.7l-0.1-0.7c-0.2-2-0.4-4 0.6-5.7 1.4-2.5 4.6-3.2 7.5-3.3 2.8-0.1 5.9 0 8.3-1.6 3.4-2.3 4.1-7.5 7.8-9.4q0.9-0.4 1.8-0.5 0.8-0.2 1.7-0.1 0.9 0 1.8 0.2 0.9 0.3 1.7 0.7 0.8 0.4 1.5 0.8 0.8 0.5 1.5 1 0.8 0.5 1.5 1 0.8 0.5 1.5 1.1 0.9 0.7 2 1.3 1 0.6 2 1.2 1.1 0.6 2.2 1.1 1 0.5 2.2 0.9 0.3 0.1 0.6 0.3 0.3 0.1 0.7 0.2 0.3 0 0.7 0.1 0.3 0 0.7 0.1 0.5-0.1 0.9-0.2 0.5 0 1-0.2 0.4-0.1 0.9-0.3 0.4-0.1 0.9-0.3 0.9-0.4 1.8-0.6 0.9-0.3 1.9-0.4 0.9-0.1 1.9-0.1 1 0.1 1.9 0.2 0.9 0.2 1.8 0.5 0.9 0.4 1.7 0.9 0.8 0.6 1.5 1.3 0.6 0.7 1.1 1.5c1.5 2.9 0.9 6.5 1.4 9.7 0.5 2.8 1.8 5.2 2.8 7.8q0.2 0.4 0.3 0.8 0.1 0.4 0.3 0.8 0.1 0.5 0.2 0.9 0.1 0.4 0.1 0.9 0 0 0 0 0 0 0 0 0 0 0 0 0 0 0 0 0.1 0.5 0.1 1 0 0.1 0 0.2 0 0.5 0 0.9 0 0.2 0 0.3c0 0.3 0 0.7-0.1 0.8q-0.1 0.2-0.1 0.3 0 0.2 0 0.3-0.1 0.1-0.1 0.3-0.1 0.1-0.1 0.2 0 0.2-0.1 0.3-0.3 0.6-0.7 1.2-0.4 0.7-0.9 1.2-0.5 0.6-1 1.1-0.5 0.5-1.1 1-0.3 0.3-0.7 0.6-0.3 0.3-0.7 0.6-0.4 0.3-0.8 0.6-0.4 0.3-0.8 0.6c0.1 0.3 0.2 0.6 0.2 0.9q0.1 0.6 0.2 1.2 0.1 0.6 0.1 1.2 0.1 0.6 0.1 1.2 0 0.6 0 1.2 0 3.7-0.9 7.2-0.8 3.5-2.5 6.7-1.6 3.2-4 6-2.4 2.7-5.4 4.8 0.2 0.4 0.4 0.8 0.5 0.9 1 1.8l12.9 3.3 7 1.8c0 0 12.7 3 22.7 11.4 10 8.4 11.2 40.6 11.2 40.6l1.8 27.1c0 0 0.5 26 0 27l0.5-1c0 0-1 10.2-4.1 12q-0.8 0.6-1.6 1.1-0.8 0.6-1.5 1.1-0.8 0.6-1.6 1.2-0.7 0.6-1.5 1.2 1.3 0.8 2.5 1.7c5.4 3.8 11.2 8.5 12.4 12.4 2.5 7.7 3.5 9 3.5 9l2.3 121.3c0 0-3.2 0.6-7 1.4l-0.1 1-0.3 4.7-0.1 1c1.6-0.1 3.6 0.4 4.9 3.4 2.1 5.3 7 16.6 7 16.6 0 0 10.8 10 4.2 19.3zm-51.1-212.3q0.4 0 0.7-0.1 0.3-0.1 0.7-0.1 0.3-0.1 0.6-0.1 0.4-0.1 0.7-0.1c0 0 1.2-15.8-1.1-18.4-2.3-2.5-3.6-7.4-3.6-7.4-1.4 4 0.3 15.7 2 26.2zm-82.4 14.7h0.1z"/>
	<path id="Layer" class="s9" d="m437 768.4l-20.1 2-0.6-6.7-0.4-4.6-0.5-6.8 19 1 1.5 8.7 0.3 1.9 0.8 4.5z"/>
	<path id="Layer" class="s9" d="m583.4 753.3l-0.5 6.8-0.4 4.6-0.6 6.7-20.1-2 0.8-4.5 0.3-1.9 1.5-8.7 19-1z"/>
	<path id="Layer" class="s10" d="m562.1 655.9l-59.8 2.8q-4.1 0.2-8.2 0l-57.1-2.8v-45.2h125.1z"/>
	<path id="Layer" class="s7" d="m562.1 655.9l-59.8 2.8q-4.1 0.2-8.2 0l-57.1-2.8v-45.2h125.1z"/>
	<path id="Layer" class="s11" d="m485.5 488.7c0 0-19.9 6.7-27.4 12.2-1.6 1.2-3 2.1-4.3 2.9q-1.7 1-3.2 2.4-1.5 1.3-2.8 2.9-1.3 1.5-2.3 3.3-1 1.8-1.7 3.7-0.1 0.2-0.2 0.3c-1 2.3-5.7 17.5-5.7 17.5 0 0-3.5 8.5-4 14-0.5 5.5 28.5 20.3 28.5 20.3 0 0-14 30.5-7.8 38.2 6.3 7.8 97.5 11.5 95.5 0-2-11.5-5.5-30.5-3.7-35.7l31-22.5c0 0-1.3-31.5-11-39.8-9.8-8.2-22-11.2-22-11.2l-19.4-5c0 0-6.9 17-14.4 19.2-7.5 2.3-23.9-8.1-25.1-22.7z"/>
	<path id="Layer" class="s7" d="m513.5 517.4c0 0-8.5 7-12.9 0 0 0-4 11.9 0 15.9l-0.1 0.8-0.8 3.6-9.2 77 7.6 13.1 13.9-17.4-1.1-72-0.5-4.1-0.2-1h2.4c0 0 6.3-10.9 0.9-15.9z"/>
	<path id="Layer" class="s7" d="m515.5 517.4c0 0-8.5 7-12.9 0 0 0-4 11.9 0 15.9l-0.1 0.8-0.8 3.6-9.2 77 7.6 13.1 13.9-17.4-1.1-72-0.5-4.1-0.2-1h2.4c0 0 6.3-10.9 0.9-15.9z"/>
	<path id="Layer" class="s12" d="m513 609.4l-13.9 17.4-7.6-13.1 9.2-77 0.7-3.6 0.2-0.8 1.3-3.2 8.3 3.2 0.2 1 0.5 4.1 1.1 72z"/>
	<path id="Layer" class="s7" d="m435.9 762q-1.7 0-3.3-0.1-1.6-0.1-3.2-0.3-1.6-0.1-3.2-0.4-1.6-0.2-3.2-0.5c-2.1-0.5-4.7-1.1-7.1-1.6l-0.6-6.8 19 1z"/>
	<path id="Layer" class="s10" d="m499.3 658.8c-1.7 4.7-51.3 3.9-51.3 3.9 0 0-2.6 70-6.6 78.6-4 8.7-4.4 19.7-4.4 19.7 0 0-8.6 0-14-1.3-5.3-1.4-14-3-14-3l2.3-118.8c0 0 1-1.2 3.4-8.7 1.5-4.9 10.3-11.1 16.4-15 3.4-2.2 5.9-3.6 5.9-3.6l29.6 1.2 18.3 0.8c0 0 16 41.6 14.3 46.2z"/>
	<path id="Layer" class="s7" d="m437 768.4l-20.1 2-0.6-6.7q0.3 0 0.5 0 0.3 0.1 0.6 0.1 0.3 0.1 0.5 0.2 0.3 0.1 0.6 0.2c3.6 2.6 14.1 0.5 17.7-0.3z"/>
	<path id="Layer" class="s12" d="m440.8 787.9q0 0.7-0.2 1.4-0.1 0.7-0.4 1.3-0.3 0.7-0.8 1.2-0.5 0.5-1 1-0.5 0.3-1 0.6-0.5 0.3-1.1 0.6-0.5 0.2-1.1 0.4-0.6 0.2-1.2 0.3-0.3 0-0.7 0.1-0.3 0.1-0.6 0.3-0.3 0.1-0.6 0.4-0.2 0.2-0.4 0.5-0.8 1.1-1.8 2.2-1 1-2.1 1.9-1.1 0.9-2.4 1.7-1.2 0.7-2.5 1.3c-7 2.7-16.7 5.4-21.3 1.2q-0.1-0.1-0.2-0.3-0.2-0.1-0.3-0.2-0.1-0.2-0.2-0.3-0.2-0.2-0.3-0.3c-6.3-9.2 4.2-18.9 4.2-18.9 0 0 4.7-11.1 6.8-16.3q0.4-1 1.1-1.7 0.7-0.8 1.7-1.2 1-0.4 2.1-0.4 1 0 2 0.5c4 2.8 16.1 0.1 18.5-0.5 2.4-0.6 3.1 9.1 3.1 9.1l0.7 13.9q0 0 0 0.1 0 0 0 0 0 0 0 0 0 0.1 0 0.1z"/>
	<path id="Layer" class="s7" d="m583.4 753.3l-0.5 6.8c-2.4 0.5-5 1.1-7.1 1.6q-1.6 0.3-3.2 0.5-1.6 0.3-3.2 0.4-1.6 0.2-3.3 0.3-1.6 0.1-3.2 0.1l1.5-8.7z"/>
	<path id="Layer" class="s10" d="m589.8 757.7c0 0-8.7 1.6-14 3-5.4 1.3-14 1.3-14 1.3 0 0-0.4-11-4.4-19.7-4-8.6-6.6-78.6-6.6-78.6 0 0-46.8-0.3-48.5-5-1.7-4.6 20.4-45 20.4-45l13.5-0.7 25.6-1.3c0 0 5 2.7 10.2 6.4 5.3 3.6 10.9 8.3 12.1 12.1 2.3 7.5 3.3 8.7 3.3 8.7z"/>
	<path id="Layer" class="s7" d="m582.5 764.7l-0.6 6.7-20.1-2 0.8-4.5c3.5 0.8 14 2.9 17.7 0.3q0.2-0.1 0.5-0.2 0.3-0.1 0.6-0.2 0.2 0 0.5-0.1 0.3 0 0.6 0z"/>
	<path id="Layer" class="s12" d="m580.3 766.2q1-0.5 2-0.5 1.1 0 2.1 0.4 1 0.4 1.7 1.2 0.7 0.7 1.1 1.7c2.1 5.2 6.8 16.3 6.8 16.3 0 0 10.5 9.8 4.2 18.9-4 5.7-14.8 2.8-22.3-0.1q-1.3-0.6-2.5-1.3-1.2-0.8-2.4-1.7-1.1-0.9-2.1-1.9-0.9-1.1-1.8-2.2-0.2-0.3-0.4-0.5-0.3-0.3-0.6-0.4-0.3-0.2-0.6-0.3-0.4-0.1-0.7-0.1-0.6-0.1-1.2-0.3-0.6-0.2-1.2-0.5-0.5-0.2-1-0.5-0.6-0.3-1.1-0.7-0.5-0.5-1-1-0.4-0.5-0.7-1.2-0.3-0.6-0.5-1.3-0.1-0.7-0.1-1.4l0.7-14c0 0 0.7-9.7 3.1-9.1 2.4 0.6 14.5 3.4 18.5 0.5z"/>
	<path id="Layer" class="s13" d="m528.6 497.2l-20.2 21.4-0.6 0.6-0.7-0.5c-4.2-2.5-25.3-15.2-23.5-19 1-2.2 1.6-6.7 1.9-10.7 0-0.4 0.1-0.9 0.1-1.3 0.2-3.1 0.2-5.5 0.2-5.5 0 0 38-6.5 36.5 0-0.6 2.6 0.3 5.6 1.6 8.1q0.6 1.2 1.3 2.2 0.3 0.6 0.7 1.2 0.4 0.6 0.9 1.2 0.4 0.6 0.9 1.2 0.4 0.5 0.9 1.1z"/>
	<path id="Layer" class="s7" d="m523.9 490.3c-2.8 2.1-5.9 3.7-9.3 4.7-3.3 0.9-6.8 1.3-10.3 1.1-3.5-0.3-6.9-1.1-10.1-2.6-3.2-1.4-6.1-3.4-8.6-5.8 0.2-3.1 0.2-5.5 0.2-5.5 0 0 38-6.5 36.5 0-0.5 2.6 0.4 5.6 1.6 8.1z"/>
	<path id="Layer" class="s13" d="m536 465.5c0.1 7.7-2.8 15.1-8 20.7-5.3 5.6-12.6 9-20.2 9.3-7.7 0.4-15.3-2.3-21-7.3-5.8-5.1-9.4-12.2-10-19.9q-0.2-1.4-0.2-2.8c-0.1-8 3-15.7 8.5-21.4 5.6-5.7 13.3-8.9 21.2-8.9 8 0 15.6 3.2 21.2 8.9 5.6 5.7 8.6 13.4 8.5 21.4z"/>
	<path id="Layer" class="s7" d="m535.6 460.7q-0.5 0.5-1.2 0.8-0.7 0.4-1.4 0.6-0.7 0.2-1.5 0.2-0.7 0-1.4-0.1c-4.6-1-6.2-8-10.9-8.5-4.7-0.4-7.8 6-12.5 5.9-2 0-3.8-1.3-5.6-2.3-3.3-1.5-8.6-2.5-12-1.3-5.3 1.8-7 6.6-10.4 10.5q-0.2 0.2-0.4 0.5-0.2 0.2-0.5 0.4-0.2 0.2-0.5 0.5-0.2 0.2-0.5 0.4-0.1-1.4-0.1-2.8c0-7.5 2.7-14.8 7.8-20.3 5.1-5.6 12-9 19.5-9.6 7.5-0.6 14.9 1.7 20.8 6.3 5.9 4.7 9.8 11.4 10.9 18.8z"/>
	<path id="Layer" class="s9" d="m501.1 456.4c1.8 0.9 3.6 2.2 5.6 2.2 4.7 0.2 7.8-6.4 12.5-5.8 4.7 0.5 6.3 7.4 10.9 8.4 3.1 0.7 6-1.6 8.3-3.7q0.5-0.5 1-1 0.6-0.5 1-1 0.5-0.6 0.8-1.2 0.4-0.6 0.7-1.2c1-2.5 0.5-5.4-0.4-7.9-0.9-2.5-2.2-4.9-2.7-7.6-0.6-3.1 0.1-6.6-1.4-9.5q-0.5-0.8-1.1-1.5-0.7-0.7-1.4-1.2-0.8-0.5-1.7-0.9-0.8-0.3-1.8-0.5-0.9-0.1-1.8-0.2-1 0-1.9 0.1-0.9 0.1-1.8 0.4-0.9 0.2-1.8 0.5-0.4 0.2-0.9 0.4-0.4 0.2-0.8 0.3-0.5 0.1-1 0.2-0.4 0.1-0.9 0.1-0.3 0-0.7 0-0.3-0.1-0.7-0.2-0.3 0-0.6-0.2-0.3-0.1-0.7-0.2-1-0.4-2.1-0.9-1-0.5-2.1-1.1-1-0.5-2-1.1-1-0.6-1.9-1.3-0.7-0.6-1.4-1.1-0.7-0.5-1.5-1-0.7-0.5-1.4-0.9-0.8-0.4-1.6-0.9-0.7-0.4-1.6-0.6-0.8-0.2-1.7-0.3-0.9 0-1.7 0.2-0.9 0.1-1.7 0.5c-3.6 1.8-4.3 7-7.6 9.2-2.4 1.6-5.4 1.4-8.1 1.5-2.8 0.1-6 0.8-7.4 3.2-1.1 2.1-0.6 4.7-0.4 7.1q0.1 0.9 0 1.9 0 0.9-0.2 1.8-0.1 1-0.3 1.9-0.3 0.9-0.6 1.8c-1.6 4.1-4.7 8.2-3.6 12.5 0.7 2.8 3.3 5.1 3.1 8q0 0.2-0.1 0.5 0 0.3 0 0.6 0 0.3-0.1 0.5 0 0.3 0 0.6 0 0.3 0.1 0.5 0.1 0.3 0.3 0.5 0.2 0.2 0.4 0.4 0.3 0.1 0.5 0.2 0.2 0 0.3 0 0.2-0.1 0.3-0.1 0.2 0 0.3-0.1 0.1-0.1 0.2-0.2 0.7-0.3 1.3-0.7 0.6-0.4 1.1-0.9 0.6-0.4 1.1-0.9 0.5-0.5 1-1c3.3-3.9 5.1-8.7 10.3-10.5 3.5-1.2 8.8-0.2 12.1 1.4z"/>
	<path id="Layer" class="s13" d="m535.5 630.9l-5.4 1.5-12.5 3.4q-1.1 0.8-2.2 1.5-1.2 0.7-2.4 1.3-1.2 0.6-2.4 1.1-1.3 0.5-2.6 0.9c-7.6 1.9-12.5-2.3-16.6-8.8-1.7-2.6-0.9-4.7 1.3-6.3 5.2-3.9 18.1-5.2 22-4.7q1 0.1 1.9 0.1 1-0.1 2-0.2 0.9-0.2 1.8-0.4 1-0.3 1.9-0.7 0.6-0.2 1.2-0.5 0.7-0.2 1.3-0.5 0.6-0.3 1.2-0.6 0.6-0.3 1.2-0.7z"/>
	<path id="Layer" class="s7" d="m535.5 630.9l-5.4 1.5c-1.6-4.7-4.1-10.5-7.8-12.8q0.7-0.2 1.3-0.5 0.6-0.2 1.2-0.5 0.6-0.3 1.2-0.6 0.6-0.4 1.2-0.7z"/>
	<path id="Layer" class="s7" d="m572 618.1c-2.3 1.8-4.1 3.4-4.1 3.4 0 0-26 8.2-31 18.4 0 0-4-20-12.5-20.2 0 0 9.1-3.6 11.7-6.7l25.7-1.3c0 0 5 2.7 10.2 6.4z"/>
	<path id="Layer" class="s11" d="m571.6 539.7l5.8 8.5 1.7 26.5c0 0 0.5 25.5 0 26.5l0.5-1c0 0-1 10-4 11.7-3 1.8-9.8 7.6-9.8 7.6 0.1 0-25.9 8.2-30.9 18.4-0.1 0-4.1-20-12.6-20.2 0 0 12.8-5 12.5-8.3 0 0 9.8-8.7 10.5-11 0.8-2.2 5.7-2.5 5.7-2.5 0 0 1.1-15.5-1.2-18-2.2-2.5-3.5-7.2-3.5-7.2z"/>
	<path id="Layer" class="s7" d="m508 640.6c-7.6 1.9-12.5-2.3-16.6-8.8-1.7-2.6-0.9-4.7 1.3-6.3l0.8 0.3c0 0 13.7 5.9 14.5 14.8z"/>
	<path id="Layer" class="s13" d="m504.9 648.6c-9 12.5-25.8-4.9-27-8.4-0.5-1.3-2.2-2.4-4.2-3.3q-0.9-0.4-1.9-0.8-0.9-0.4-1.9-0.7-1-0.3-2-0.6-0.9-0.3-1.9-0.5l14.9-12.1 2.8 1.1 8.8 3.5c0 0 21.4 9.3 12.4 21.8z"/>
	<path id="Layer" class="s7" d="m483.7 623.3c-8.2 3.9-10 9.5-10 13.6q-0.9-0.4-1.9-0.8-0.9-0.4-1.9-0.7-1-0.3-2-0.6-1-0.3-1.9-0.5l14.8-12.1z"/>
	<path id="Layer" class="s7" d="m470.6 644.9c0 0-24-19-35.5-27.2q-0.5-0.4-1.1-0.8-0.5-0.4-1-0.9-0.5-0.4-1-0.9-0.4-0.4-0.9-0.9c3.4-2.1 5.9-3.5 5.9-3.5l29.6 1.2c0.8 1.3 1.3 2.3 1.3 2.3l16 10.5c-19.3 6.2-13.3 20.2-13.3 20.2z"/>
	<path id="Layer" class="s11" d="m438.6 545.2l-4.8 2.7c0 0-5.7 18.3-4.2 30.3 0 0-4.5 17.2-2.8 20 0 0-2.2 9.2 9.3 17.5 11.5 8.2 35.5 27.2 35.5 27.2 0 0-6-14 13.3-20.2l-16.1-10.5c0 0-5.3-10.7-10.4-13 0 0-4-4-1.5-6.8 2.5-2.7 4.5-5.7 4.5-8.5 0-2.7 1-15.7 1-15.7l3-14z"/>
	<path id="Layer" class="s7" d="m511.4 533.3h-9.8q0 0 0-0.1-0.1 0-0.1 0 0 0 0 0 0-0.1-0.1-0.1l0.2-0.8 1.3-3.2 8.3 3.2z"/>
	<path id="Layer" class="s12" d="m514.5 516.4c0 0-8.5 7-12.9 0 0 0-4 11.9 0 15.9h12c0 0 6.3-10.9 0.9-15.9z"/>
	<path id="Layer" class="s7" d="m525.9 493.2l12.6 3.2c0 0-11.9 31-14.5 31l-15.2-7.2z"/>
	<path id="Layer" class="s7" d="m528.6 497.2l-20.2 21.4-0.6 0.6-0.7-0.5 17.7-26.9 0.4 0.7q0.4 0.6 0.8 1.2 0.4 0.6 0.8 1.2 0.4 0.6 0.9 1.2 0.4 0.5 0.9 1.1z"/>
	<path id="Layer" class="s11" d="m524.9 492.2l12.6 3.2c0 0-11.9 31-14.5 31l-15.2-7.2z"/>
	<path id="Layer" class="s7" d="m484.5 489.7l-10.9 3.5c0 0 10.8 32.5 13.8 34.2l19.5-7.2z"/>
	<path id="Layer" class="s7" d="m508.4 518.6l-0.5 0.6c0 0-26.3-15.3-24.3-19.5 1-2.2 1.6-6.8 1.9-10.7v-0.6z"/>
	<path id="Layer" class="s11" d="m485.5 488.7l-10.9 3.5c0 0 10.8 32.5 13.8 34.2l19.5-7.2z"/>
	<path id="Layer" class="s7" d="m459.5 541.8c0 0 6.6 1.2 6.5 8-0.1 6.9 2.7-8.8 2.7-8.8z"/>
	<path id="Layer" class="s7" d="m461 562.8c0 0-1.8 10.4 0 19.7 1.8 9.3 1.7 12.5 3.1 13 1.4 0.5-3.1-32.7-3.1-32.7z"/>
	<path id="Layer" class="s7" d="m545 561.8q-0.8 0.1-1.5 0.5-0.6 0.5-1.1 1.2-0.4 0.6-0.5 1.4-0.1 0.8 0.1 1.6c0.9 4.2 3-4.7 3-4.7z"/>
	<path id="Layer" class="s7" d="m430.7 596.8c0 0 21.4-1.8 25 2 3.6 3.9-25-2-25-2z"/>
	<path id="Layer" class="s7" d="m555 598.3c0 0 15.7-2 19.4 0.7"/>
	<path id="Layer" class="s7" d="m561.4 600.8c0 0 9.3 0.4 11.5 1.5"/>
	<path id="Layer" class="s7" d="m563.2 604.2c0 0 8.5-0.4 9.6 1"/>
	<path id="Layer" class="s7" d="m443.3 651.2c0 0 7.3 3.8 6.5 7.6-0.7 3.9-6.5-7.6-6.5-7.6z"/>
	<path id="Layer" class="s7" d="m437 653c0 0 11.1 14.4 9.6 19.2-1.5 4.7-9.6-19.2-9.6-19.2z"/>
	<path id="Layer" class="s7" d="m556.1 655.4c0 0-5.5 4.5-5.4 8.3"/>
	<path id="Layer" class="s7" d="m429.1 744.7c0 0 0 4.2 7.9 10.5"/>
	<path id="Layer" class="s7" d="m568 734.7c0 0-0.8 8.8-8.5 13.4"/>
	<g id="Layer" style="opacity: .1">
		<path id="Layer" class="s14" d="m473.6 434.6c0-0.7-0.1-1.4-0.2-2.1q0 0.6 0 1.2-0.1 0.6 0 1.1 0 0.6 0 1.2 0.1 0.5 0.2 1.1 0-0.3 0-0.6 0-0.3 0-0.6 0-0.3 0-0.6 0-0.4 0-0.7z"/>
		<path id="Layer" class="s14" d="m472 462.6c0.2-2.9-2.4-5.3-3.1-8q0-0.1 0-0.1 0-0.1 0-0.1 0-0.1-0.1-0.1 0-0.1 0-0.1-0.1 0.4-0.1 0.8 0 0.4 0 0.9 0 0.4 0 0.8 0.1 0.5 0.2 0.9c0.6 2.3 2.4 4.2 2.9 6.4 0.1-0.5 0.2-1 0.2-1.4z"/>
		<path id="Layer" class="s14" d="m541.9 450.1q-0.3 0.6-0.7 1.2-0.3 0.6-0.8 1.2-0.4 0.5-1 1-0.5 0.5-1 1c-2.4 2.1-5.2 4.4-8.3 3.7-4.6-1-6.2-8-10.9-8.5-4.7-0.4-7.8 6-12.5 5.9-2 0-3.8-1.3-5.6-2.3-3.3-1.5-8.6-2.5-12-1.3-5.3 1.8-7 6.6-10.4 10.5q-0.5 0.5-1 1-0.5 0.5-1 0.9-0.6 0.5-1.2 0.9-0.6 0.4-1.2 0.7-0.1 0.1-0.3 0.2-0.1 0.1-0.2 0.1-0.2 0-0.3 0.1-0.2 0-0.3 0-0.2 0-0.4-0.1-0.2-0.1-0.3-0.2-0.2-0.1-0.3-0.3-0.1-0.1-0.2-0.3v0.1q0 0.2 0 0.5-0.1 0.3-0.1 0.6 0 0.3 0 0.5 0 0.3 0 0.6 0 0.3 0.1 0.6 0.1 0.2 0.2 0.4 0.2 0.3 0.5 0.4 0.2 0.1 0.5 0.2 0.1 0 0.3 0 0.1-0.1 0.3-0.1 0.1 0 0.2-0.1 0.2-0.1 0.3-0.2 0.6-0.3 1.2-0.7 0.6-0.4 1.2-0.9 0.5-0.4 1-0.9 0.5-0.5 1-1c3.4-3.9 5.1-8.7 10.4-10.5 3.5-1.2 8.8-0.2 12 1.3 1.8 1 3.6 2.3 5.6 2.3 4.7 0.1 7.8-6.4 12.5-5.9 4.7 0.6 6.3 7.5 10.9 8.5 3.1 0.7 6-1.6 8.3-3.7q0.5-0.5 1-1 0.6-0.5 1-1 0.5-0.6 0.8-1.2 0.4-0.6 0.7-1.2 0.3-0.6 0.4-1.1 0.1-0.6 0.2-1.2 0-0.5 0-1.1 0-0.6-0.1-1.2-0.1 0.2-0.1 0.4 0 0.2-0.1 0.4 0 0.2-0.1 0.4-0.1 0.2-0.2 0.4z"/>
	</g>
	<path id="Layer" class="s7" d="m404.8 784.3c0 0 8.1-2.5 11.5 2.3"/>
	<path id="Layer" class="s7" d="m594 785.3c0 0-13.5-0.8-13 2.9"/>
	<path id="Layer" class="s15" d="m864.2 777.9c-14.9 0-27-2-27-4.6 0-2.5 12.1-4.5 27-4.5 14.9 0 26.9 2 26.9 4.5 0 2.6-12 4.6-26.9 4.6z"/>
	<path id="Layer" class="s15" d="m91.1 815.2c-14.9 0-26.9-2-26.9-4.5 0-2.5 12-4.6 26.9-4.6 14.9 0 26.9 2.1 26.9 4.6 0 2.5-12 4.5-26.9 4.5z"/>
	<path id="Layer" class="s15" d="m195.3 839.6c-14.9 0-27-2-27-4.5 0-2.5 12.1-4.6 27-4.6 14.9 0 26.9 2.1 26.9 4.6 0 2.5-12 4.5-26.9 4.5z"/>
	<path id="Layer" class="s16" d="m805.2 828.9c-22.2 0-40.2-3-40.2-6.8 0-3.8 18-6.8 40.2-6.8 22.3 0 40.2 3 40.2 6.8 0 3.8-17.9 6.8-40.2 6.8z"/>
	<path id="Layer" class="s17" d="m821.9 811q0.6-0.6 1.2-1.2 0.6-0.7 1.1-1.4 0.5-0.8 0.9-1.6 0.3-0.8 0.6-1.6c0.5-2.3-0.5-5-2.7-5.9-2.5-0.9-5.1 0.8-7.1 2.5-2 1.7-4.3 3.7-6.9 3.3q1-0.9 1.8-2 0.7-1.2 1.1-2.5 0.5-1.3 0.6-2.6 0-1.4-0.2-2.7-0.1-0.3-0.1-0.5-0.1-0.3-0.2-0.6-0.2-0.2-0.3-0.5-0.2-0.2-0.3-0.4c-1.4-1.5-3.9-0.8-5.5 0.3-5.2 3.7-6.6 10.7-6.7 17.1-0.5-2.3-0.1-4.7-0.1-7 0-2.3-0.6-5-2.6-6.2q-0.5-0.3-1-0.5-0.5-0.2-1-0.3-0.5-0.1-1-0.1-0.5-0.1-1-0.1c-2.4-0.1-5 0.2-6.6 1.9-2 2.1-1.4 5.7 0.3 8 1.7 2.3 4.4 3.8 6.8 5.4q0.7 0.4 1.4 0.9 0.6 0.6 1.2 1.1 0.7 0.6 1.2 1.3 0.5 0.6 1 1.3 0.1 0.1 0.1 0.2 0.1 0.1 0.1 0.2 0 0.1 0.1 0.2 0 0.1 0.1 0.2h14.6q1.2-0.6 2.4-1.3 1.2-0.7 2.3-1.5 1.2-0.8 2.2-1.6 1.1-0.9 2.2-1.8z"/>
	<path id="Layer" class="s18" d="m196.6 723.3c0 0 5.5 7.2-2.5 18-8 10.8-14.6 20-12 26.7 0 0 12.1-20.1 22-20.4 9.9-0.3 3.4-12.2-7.5-24.3z"/>
	<path id="Layer" class="s7" d="m196.6 723.3q0.2 0.2 0.4 0.5 0.2 0.3 0.3 0.6 0.1 0.2 0.3 0.5 0.1 0.3 0.2 0.6c9.6 11.3 14.7 21.9 5.5 22.1-8.6 0.3-19 15.7-21.5 19.6q0.2 0.4 0.3 0.9c0 0 12.2-20.2 22-20.5 9.9-0.2 3.4-12.2-7.5-24.3z"/>
	<path id="Layer" class="s19" d="m206.9 732.4c0 2.6-0.3 4.6-0.7 4.6-0.3 0-0.6-2-0.6-4.6 0-2.5 0.3-1.3 0.7-1.3 0.3 0 0.6-1.2 0.6 1.3z"/>
	<path id="Layer" class="s19" d="m210.4 735.5c-2.3 1.2-4.2 1.9-4.3 1.6-0.2-0.3 1.4-1.6 3.7-2.8 2.2-1.2 1.3-0.3 1.5 0 0.1 0.4 1.3-0.1-0.9 1.2z"/>
	<path id="Layer" class="s20" d="m167.6 723.3c0 0-5.5 7.2 2.6 18 8 10.8 14.6 20 12 26.7 0 0-12.1-20.1-22-20.4-9.9-0.3-3.4-12.2 7.4-24.3z"/>
	<path id="Layer" class="s7" d="m167.6 723.3q-0.1 0.2-0.3 0.5-0.2 0.3-0.3 0.6-0.1 0.2-0.3 0.5-0.1 0.3-0.2 0.6c-9.6 11.3-14.7 21.9-5.5 22.1 8.6 0.3 19 15.7 21.4 19.6q0 0.1 0 0.2-0.1 0.1-0.1 0.2 0 0.1-0.1 0.3 0 0.1-0.1 0.2c0 0-12.1-20.2-22-20.5-9.8-0.2-3.3-12.2 7.5-24.3z"/>
	<path id="Layer" class="s19" d="m157.4 732.4c0 2.6 0.3 4.6 0.7 4.6 0.3 0 0.6-2 0.6-4.6 0-2.5-0.4-1.3-0.7-1.3-0.4 0-0.6-1.2-0.6 1.3z"/>
	<path id="Layer" class="s19" d="m153.9 735.5c2.2 1.2 4.2 1.9 4.3 1.6 0.2-0.3-1.5-1.6-3.7-2.8-2.2-1.2-1.3-0.3-1.5 0-0.2 0.4-1.3-0.1 0.9 1.2z"/>
	<path id="Layer" class="s21" d="m159.2 767.1c0 0 15.3-0.5 20-3.7 4.6-3.3 23.6-7.3 24.7-2 1.2 5.3 23.1 26.3 5.8 26.4-17.4 0.2-40.3-2.7-44.9-5.5-4.7-2.8-5.6-15.2-5.6-15.2z"/>
	<path id="Layer" class="s22" d="m210 786c-17.3 0.1-40.3-2.7-44.9-5.5-3.5-2.2-4.9-9.9-5.4-13.4h-0.5c0 0 1 12.4 5.6 15.2 4.5 2.8 27.5 5.7 44.9 5.5 5 0 6.7-1.8 6.6-4.4-0.7 1.6-2.6 2.6-6.3 2.6z"/>
</svg>